<?xml version="1.0" encoding="UTF-8"?>
<svg version="1.1" xmlns="http://www.w3.org/2000/svg" width="50" height="50">
<path d="M0 0 C0.91966553 0.10715332 1.83933105 0.21430664 2.78686523 0.32470703 C3.17430908 1.01918945 3.56175293 1.71367188 3.9609375 2.42919922 C5.75589983 5.64502886 7.5526248 8.85987054 9.34936523 12.07470703 C9.95844727 13.16654297 10.5675293 14.25837891 11.19506836 15.38330078 C11.80415039 16.47255859 12.41323242 17.56181641 13.04077148 18.68408203 C13.6532373 19.78300781 14.26570313 20.88193359 14.89672852 22.01416016 C16.16595279 24.23718794 17.47249355 26.43928661 18.8137207 28.61962891 C19.45325684 29.66183594 20.09279297 30.70404297 20.75170898 31.77783203 C21.33428467 32.70241211 21.91686035 33.62699219 22.51708984 34.57958984 C23.78686523 37.32470703 23.78686523 37.32470703 23.78686523 43.32470703 C7.94686523 43.32470703 -7.89313477 43.32470703 -24.21313477 43.32470703 C-24.21313477 37.57811187 -24.06207786 36.31257299 -21.39672852 31.69189453 C-20.79666992 30.63744141 -20.19661133 29.58298828 -19.57836914 28.49658203 C-18.9422168 27.40861328 -18.30606445 26.32064453 -17.65063477 25.19970703 C-17.04155273 24.13494141 -16.4324707 23.07017578 -15.80493164 21.97314453 C-14.57545662 19.82904418 -13.33373619 17.69191886 -12.07983398 15.56201172 C-10.80436111 13.35003548 -9.57858778 11.10884744 -8.3972168 8.84521484 C-7.81182129 7.74790039 -7.22642578 6.65058594 -6.62329102 5.52001953 C-6.11032471 4.52244629 -5.5973584 3.52487305 -5.06884766 2.49707031 C-3.21313477 0.32470703 -3.21313477 0.32470703 0 0 Z M-1.21313477 3.32470703 C-1.60581543 4.02966309 -1.99849609 4.73461914 -2.40307617 5.4609375 C-4.21309744 8.70812523 -6.02560053 11.95392138 -7.83813477 15.19970703 C-8.4555957 16.30830078 -9.07305664 17.41689453 -9.70922852 18.55908203 C-13.06430955 24.56291126 -16.48180747 30.4929775 -20.15991211 36.30566406 C-21.44438479 38.38847701 -21.44438479 38.38847701 -21.21313477 41.32470703 C-7.35313477 41.32470703 6.50686523 41.32470703 20.78686523 41.32470703 C19.91934712 37.85463456 19.0014725 35.62137398 17.31030273 32.54345703 C16.80740723 31.62387207 16.30451172 30.70428711 15.78637695 29.75683594 C15.25028809 28.7892334 14.71419922 27.82163086 14.16186523 26.82470703 C13.61933105 25.84034668 13.07679687 24.85598633 12.51782227 23.84179688 C10.94690774 20.9993458 9.36804034 18.16146 7.78686523 15.32470703 C7.38467773 14.59799805 6.98249023 13.87128906 6.56811523 13.12255859 C3.85034996 8.11630278 3.85034996 8.11630278 0.78686523 3.32470703 C0.12686523 3.32470703 -0.53313477 3.32470703 -1.21313477 3.32470703 Z " fill="#000000" transform="translate(25.213134765625,2.67529296875)"/>
<path d="M0 0 C1.32 0 2.64 0 4 0 C4 5.28 4 10.56 4 16 C2.68 16 1.36 16 0 16 C0 10.72 0 5.44 0 0 Z " fill="#000000" transform="translate(23,17)"/>
<path d="M0 0 C0 0.99 0 1.98 0 3 C-3.08809695 4.76462683 -4.23312136 5 -8 5 C-8 4.01 -8 3.02 -8 2 C-4.91190305 0.23537317 -3.76687864 0 0 0 Z " fill="#000000" transform="translate(48,12)"/>
<path d="M0 0 C5.75 0.875 5.75 0.875 8 2 C8 2.99 8 3.98 8 5 C2.25 4.125 2.25 4.125 0 3 C0 2.01 0 1.02 0 0 Z " fill="#000000" transform="translate(2,12)"/>
<path d="M0 0 C0.99 0 1.98 0 3 0 C2.38722388 2.96175123 1.74627478 4.38058783 0 7 C-0.99 7 -1.98 7 -3 7 C-2.38722388 4.03824877 -1.74627478 2.61941217 0 0 Z " fill="#000000" transform="translate(39,5)"/>
<path d="M0 0 C1.875 0.3125 1.875 0.3125 4 1 C6 4 6 4 6 7 C4.125 6.6875 4.125 6.6875 2 6 C0 3 0 3 0 0 Z " fill="#000000" transform="translate(8,5)"/>
<path d="M0 0 C1.32 0 2.64 0 4 0 C4 1.32 4 2.64 4 4 C2.68 4 1.36 4 0 4 C0 2.68 0 1.36 0 0 Z " fill="#000000" transform="translate(23,36)"/>
<path d="M0 0 C2.64 0 5.28 0 8 0 C8 0.66 8 1.32 8 2 C5.36 2 2.72 2 0 2 C0 1.34 0 0.68 0 0 Z " fill="#000000" transform="translate(42,21)"/>
<path d="M0 0 C2.64 0 5.28 0 8 0 C8 0.66 8 1.32 8 2 C5.36 2 2.72 2 0 2 C0 1.34 0 0.68 0 0 Z " fill="#000000" transform="translate(0,21)"/>
</svg>
