<?xml version="1.0" encoding="UTF-8"?>
<svg version="1.1" xmlns="http://www.w3.org/2000/svg" width="50" height="50">
<path d="M0 0 C4.88949139 2.270121 7.76263748 5.09501294 10 10 C12.23197695 25.2483659 4.62973847 36.34327266 -4 48 C-6.21484375 47.90234375 -6.21484375 47.90234375 -9 47 C-10.76909861 44.85500523 -12.15088336 42.92275244 -13.5625 40.5625 C-13.95236084 39.92578369 -14.34222168 39.28906738 -14.74389648 38.63305664 C-20.39732548 29.2083001 -23.46984264 21.23379731 -22 10 C-17.59387836 0.34042564 -9.81466679 -1.32120515 0 0 Z M-18 9 C-20.28446829 13.56893657 -19.56070138 19.68933891 -18.38671875 24.52734375 C-15.78892492 31.58830761 -11.66611213 38.12191069 -7 44 C-6.34 44 -5.68 44 -5 44 C-3.41799612 41.86264371 -1.97463534 39.74628173 -0.5625 37.5 C0.04646118 36.53259888 0.04646118 36.53259888 0.66772461 35.5456543 C5.47247463 27.77375354 8.77009835 20.38012745 7 11 C4.99883572 7.51785176 2.61165246 4.80582623 -1 3 C-8.53291221 1.9120657 -13.03748238 3.14210458 -18 9 Z " fill="#000000" transform="translate(31,1)"/>
<path d="M0 0 C2 1 2 1 3 3 C3.51981506 6.56444611 3.63102777 9.73794446 2 13 C-1.26205554 14.63102777 -4.43555389 14.51981506 -8 14 C-10 13 -10 13 -11 11 C-11.51981506 7.43555389 -11.63102777 4.26205554 -10 1 C-6.73794446 -0.63102777 -3.56444611 -0.51981506 0 0 Z M-8 4 C-8.16666667 7 -8.16666667 7 -8 10 C-6.88163776 11.34404775 -6.88163776 11.34404775 -4 11.125 C-1.11836224 11.34404775 -1.11836224 11.34404775 0 10 C0.16666667 7 0.16666667 7 0 4 C-1.11836224 2.65595225 -1.11836224 2.65595225 -4 2.875 C-6.88163776 2.65595225 -6.88163776 2.65595225 -8 4 Z " fill="#000000" transform="translate(29,11)"/>
</svg>
