<?xml version="1.0" encoding="UTF-8"?>
<svg version="1.1" xmlns="http://www.w3.org/2000/svg" width="50" height="50">
<path d="M0 0 C3.1875 0.1875 3.1875 0.1875 5.01171875 1.16796875 C7.78895808 2.46933224 10.13301351 2.53477568 13.1875 2.6875 C17.12932816 2.88459141 19.73556747 3.30396144 23.1875 5.1875 C24.8890625 5.4659375 24.8890625 5.4659375 26.625 5.75 C31.02467564 7.52530771 32.25819481 9.17537628 34.3125 13.3515625 C36.67862608 21.02034612 36.02960914 29.72696352 33.1875 37.1875 C32.5275 37.1875 31.8675 37.1875 31.1875 37.1875 C31.1875 33.2275 31.1875 29.2675 31.1875 25.1875 C30.8575 31.1275 30.5275 37.0675 30.1875 43.1875 C27.2175 43.1875 24.2475 43.1875 21.1875 43.1875 C21.1875 42.1975 21.1875 41.2075 21.1875 40.1875 C13.9275 40.1875 6.6675 40.1875 -0.8125 40.1875 C-0.8125 41.1775 -0.8125 42.1675 -0.8125 43.1875 C-3.7825 43.1875 -6.7525 43.1875 -9.8125 43.1875 C-10.1425 38.5675 -10.4725 33.9475 -10.8125 29.1875 C-10.8125 31.4975 -10.8125 33.8075 -10.8125 36.1875 C-11.8025 35.8575 -12.7925 35.5275 -13.8125 35.1875 C-15.60518293 17.77286585 -15.60518293 17.77286585 -13.8125 14.1875 C-13.772508 12.18789988 -13.76903201 10.18702758 -13.8125 8.1875 C-8.1875 5.1875 -8.1875 5.1875 -4.8125 5.1875 C-4.668125 4.548125 -4.52375 3.90875 -4.375 3.25 C-3.52174158 0.12138578 -3.35586768 0.22372451 0 0 Z M-1.8125 3.1875 C-1.915625 3.826875 -2.01875 4.46625 -2.125 5.125 C-2.351875 5.805625 -2.57875 6.48625 -2.8125 7.1875 C-3.8025 7.5175 -4.7925 7.8475 -5.8125 8.1875 C-5.915625 9.115625 -6.01875 10.04375 -6.125 11 C-6.8195192 14.22004358 -7.28990939 15.21329865 -9.8125 17.1875 C-8.4925 17.1875 -7.1725 17.1875 -5.8125 17.1875 C-4.8225 15.2075 -3.8325 13.2275 -2.8125 11.1875 C9.5625 10.6925 9.5625 10.6925 22.1875 10.1875 C21.32187698 7.90517468 21.32187698 7.90517468 18.5625 7.125 C13.72889414 5.78233171 9.20110981 5.1875 4.1875 5.1875 C3.5275 5.1875 2.8675 5.1875 2.1875 5.1875 C2.1875 4.5275 2.1875 3.8675 2.1875 3.1875 C0.8675 3.1875 -0.4525 3.1875 -1.8125 3.1875 Z M24.1875 9.1875 C23.8575 9.8475 23.5275 10.5075 23.1875 11.1875 C24.12196535 13.21894641 25.11974776 15.22283587 26.1875 17.1875 C27.5075 17.1875 28.8275 17.1875 30.1875 17.1875 C30.043125 16.61 29.89875 16.0325 29.75 15.4375 C29.22916667 13.35416667 28.70833333 11.27083333 28.1875 9.1875 C26.8675 9.1875 25.5475 9.1875 24.1875 9.1875 Z M-10.8125 10.1875 C-10.8125 10.8475 -10.8125 11.5075 -10.8125 12.1875 C-10.1525 12.1875 -9.4925 12.1875 -8.8125 12.1875 C-8.8125 11.5275 -8.8125 10.8675 -8.8125 10.1875 C-9.4725 10.1875 -10.1325 10.1875 -10.8125 10.1875 Z M-1.8125 14.1875 C-3.00167298 16.26102076 -3.00167298 16.26102076 -3.9375 18.625 C-4.27007812 19.40746094 -4.60265625 20.18992187 -4.9453125 20.99609375 C-5.62198666 22.70606765 -6.23095906 24.44287718 -6.8125 26.1875 C-5.1625 26.5175 -3.5125 26.8475 -1.8125 27.1875 C-1.8125 28.1775 -1.8125 29.1675 -1.8125 30.1875 C-3.7925 30.1875 -5.7725 30.1875 -7.8125 30.1875 C-7.8125 33.8175 -7.8125 37.4475 -7.8125 41.1875 C-6.1625 41.1875 -4.5125 41.1875 -2.8125 41.1875 C-2.8125 39.8675 -2.8125 38.5475 -2.8125 37.1875 C-1.94109375 37.27128906 -1.0696875 37.35507812 -0.171875 37.44140625 C7.76804747 38.12025244 15.27449359 38.12952457 23.1875 37.1875 C23.1875 38.5075 23.1875 39.8275 23.1875 41.1875 C24.8375 41.1875 26.4875 41.1875 28.1875 41.1875 C28.1875 37.5575 28.1875 33.9275 28.1875 30.1875 C26.2075 30.1875 24.2275 30.1875 22.1875 30.1875 C22.1875 29.1975 22.1875 28.2075 22.1875 27.1875 C23.8375 26.8575 25.4875 26.5275 27.1875 26.1875 C26.89875 25.62417969 26.61 25.06085937 26.3125 24.48046875 C24.80710598 21.41218301 23.50794145 18.26480362 22.1875 15.11328125 C21.33922947 13.01849269 21.33922947 13.01849269 19.1875 12.1875 C16.21397712 11.95169484 13.23186302 12.00232052 10.25 12 C9.42564453 11.98775391 8.60128906 11.97550781 7.75195312 11.96289062 C6.95853516 11.96095703 6.16511719 11.95902344 5.34765625 11.95703125 C4.25916382 11.95086792 4.25916382 11.95086792 3.14868164 11.94458008 C0.86517752 12.07867166 0.86517752 12.07867166 -1.8125 14.1875 Z M-11.8125 18.1875 C-10.8125 22.1875 -10.8125 22.1875 -10.8125 22.1875 Z M31.1875 18.1875 C32.1875 22.1875 32.1875 22.1875 32.1875 22.1875 Z " fill="#000000" transform="translate(14.8125,4.8125)"/>
<path d="M0 0 C5.94 0 11.88 0 18 0 C17.67 1.98 17.34 3.96 17 6 C14.29437257 7.35281371 12.08106345 7.20609362 9.0625 7.25 C8.00160156 7.27578125 6.94070312 7.3015625 5.84765625 7.328125 C3 7 3 7 1.12109375 5.734375 C0 4 0 4 0 0 Z M4 2 C4 2.66 4 3.32 4 4 C7.3 4 10.6 4 14 4 C14 3.34 14 2.68 14 2 C10.7 2 7.4 2 4 2 Z " fill="#000000" transform="translate(16,33)"/>
<path d="M0 0 C3 0.125 3 0.125 4 1.125 C4.125 4.125 4.125 4.125 4 7.125 C3 8.125 3 8.125 0 8.25 C-3 8.125 -3 8.125 -4 7.125 C-4.125 4.125 -4.125 4.125 -4 1.125 C-3 0.125 -3 0.125 0 0 Z M-1 3.125 C-1 3.785 -1 4.445 -1 5.125 C-0.34 5.125 0.32 5.125 1 5.125 C1 4.465 1 3.805 1 3.125 C0.34 3.125 -0.32 3.125 -1 3.125 Z " fill="#000000" transform="translate(41,0.875)"/>
<path d="M0 0 C1.98 0 3.96 0 6 0 C6 1.98 6 3.96 6 6 C4.02 6 2.04 6 0 6 C0 4.02 0 2.04 0 0 Z " fill="#000000" transform="translate(23,0)"/>
</svg>
