<?xml version="1.0" encoding="UTF-8"?>
<svg version="1.1" xmlns="http://www.w3.org/2000/svg" width="50" height="50">
<path d="M0 0 C3.63 0 7.26 0 11 0 C11 1.98 11 3.96 11 6 C15.62 6 20.24 6 25 6 C25 4.02 25 2.04 25 0 C28.63 0 32.26 0 36 0 C36 1.98 36 3.96 36 6 C36.969375 6.144375 37.93875 6.28875 38.9375 6.4375 C42 7 42 7 43 8 C43.08843793 10.44830426 43.11528752 12.86820599 43.09765625 15.31640625 C43.0962413 16.04746078 43.09482635 16.77851532 43.09336853 17.53172302 C43.08775408 19.87535632 43.07519922 22.21889539 43.0625 24.5625 C43.05748686 26.14778508 43.05292363 27.73307166 43.04882812 29.31835938 C43.03777997 33.2122761 43.02050572 37.10612205 43 41 C40.12161753 42.63253508 38.05567281 43.25154432 34.75390625 43.25878906 C33.92624756 43.26509338 33.09858887 43.27139771 32.24584961 43.27789307 C31.36034424 43.2738446 30.47483887 43.26979614 29.5625 43.265625 C28.6454126 43.26753845 27.7283252 43.2694519 26.78344727 43.27142334 C24.84683965 43.27278274 22.91022285 43.26910342 20.97363281 43.26074219 C18.01085931 43.25003923 15.04869216 43.2606458 12.0859375 43.2734375 C10.20312366 43.27211586 8.3203102 43.26955338 6.4375 43.265625 C5.10924194 43.27169769 5.10924194 43.27169769 3.75415039 43.27789307 C2.9264917 43.27158875 2.09883301 43.26528442 1.24609375 43.25878906 C0.52091553 43.25719788 -0.2042627 43.25560669 -0.95141602 43.25396729 C-3 43 -3 43 -7 41 C-7 30.11 -7 19.22 -7 8 C-3 6 -3 6 0 6 C0 4.02 0 2.04 0 0 Z M3 2 C2.67 3.32 2.34 4.64 2 6 C4.31 6 6.62 6 9 6 C8.67 4.68 8.34 3.36 8 2 C6.35 2 4.7 2 3 2 Z M28 2 C27.67 3.32 27.34 4.64 27 6 C29.31 6 31.62 6 34 6 C33.67 4.68 33.34 3.36 33 2 C31.35 2 29.7 2 28 2 Z M-4 10 C-4 19.57 -4 29.14 -4 39 C10.52 39 25.04 39 40 39 C40 29.43 40 19.86 40 10 C25.48 10 10.96 10 -4 10 Z " fill="#000000" transform="translate(7,4)"/>
<path d="M0 0 C0.99 0 1.98 0 3 0 C3 1.32 3 2.64 3 4 C4.32 4 5.64 4 7 4 C7 4.99 7 5.98 7 7 C5.68 7 4.36 7 3 7 C3 8.32 3 9.64 3 11 C2.01 11 1.02 11 0 11 C0 9.68 0 8.36 0 7 C-1.32 7 -2.64 7 -4 7 C-4 6.01 -4 5.02 -4 4 C-2.68 4 -1.36 4 0 4 C0 2.68 0 1.36 0 0 Z " fill="#000000" transform="translate(36,23)"/>
<path d="M0 0 C3.63 0 7.26 0 11 0 C11 0.99 11 1.98 11 3 C7.37 3 3.74 3 0 3 C0 2.01 0 1.02 0 0 Z " fill="#000000" transform="translate(7,27)"/>
</svg>
