<?xml version="1.0" encoding="UTF-8"?>
<svg version="1.1" xmlns="http://www.w3.org/2000/svg" width="50" height="50">
<path d="M0 0 C4.99183607 -0.43617985 8.73773073 -0.75736156 13.125 1.875 C15.68571999 6.14286665 15.99174904 10.12390056 15 15 C14.25665405 15.63095581 14.25665405 15.63095581 13.49829102 16.2746582 C11.33703882 18.76342621 11.59991276 20.65238751 11.55859375 23.91015625 C11.53216797 25.06451172 11.50574219 26.21886719 11.47851562 27.40820312 C11.45821289 29.21708008 11.45821289 29.21708008 11.4375 31.0625 C11.40316586 33.44935858 11.36062002 35.83611776 11.30859375 38.22265625 C11.29626709 39.28234619 11.28394043 40.34203613 11.27124023 41.43383789 C11 44 11 44 9 46 C6 46.25 6 46.25 3 46 C1 44 1 44 0.76049805 41.64916992 C0.76110229 40.20441284 0.76110229 40.20441284 0.76171875 38.73046875 C0.74560547 37.67666016 0.72949219 36.62285156 0.71289062 35.53710938 C0.69605281 33.31581292 0.69072069 31.09439751 0.69726562 28.87304688 C0.73275023 22.40833235 0.73275023 22.40833235 -2.5234375 17.0703125 C-3.34070313 16.38710938 -4.15796875 15.70390625 -5 15 C-5.48828125 12.32421875 -5.48828125 12.32421875 -5.3125 9.6875 C-5.26738281 8.80449219 -5.22226562 7.92148438 -5.17578125 7.01171875 C-5.11777344 6.34785156 -5.05976563 5.68398437 -5 5 C-2.77442119 6.05109472 -1.1566607 6.83707287 0.5625 8.625 C2.02978279 10.34561132 2.02978279 10.34561132 5 10 C4.45275433 6.1692803 2.71844729 4.63075544 0 2 C0 1.34 0 0.68 0 0 Z M8 4 C8.185625 4.7425 8.37125 5.485 8.5625 6.25 C8.99203108 8.94990963 8.85122974 10.44631077 8 13 C1.25 14.125 1.25 14.125 -1 13 C-0.67 13.99 -0.34 14.98 0 16 C0.66 16.33 1.32 16.66 2 17 C2.02505615 17.71655762 2.0501123 18.43311523 2.07592773 19.17138672 C2.19169751 22.40611514 2.31450969 25.64053841 2.4375 28.875 C2.47681641 30.00292969 2.51613281 31.13085938 2.55664062 32.29296875 C2.59853516 33.36933594 2.64042969 34.44570313 2.68359375 35.5546875 C2.72025146 36.54968262 2.75690918 37.54467773 2.79467773 38.56982422 C2.84959532 41.00779501 2.84959532 41.00779501 4 43 C5.32 43 6.64 43 8 43 C9.30582465 40.3883507 9.1774095 38.36291497 9.24609375 35.44140625 C9.27896484 34.33345703 9.31183594 33.22550781 9.34570312 32.08398438 C9.40679671 29.7403304 9.46410153 27.39657453 9.51757812 25.05273438 C9.55173828 23.94349609 9.58589844 22.83425781 9.62109375 21.69140625 C9.6461499 20.67248291 9.67120605 19.65355957 9.69702148 18.60375977 C10 16 10 16 12 13 C12.33957563 8.92509248 12.31332486 7.46998729 10 4 C9.34 4 8.68 4 8 4 Z " fill="#000000" transform="translate(33,2)"/>
<path d="M0 0 C0 0.66 0 1.32 0 2 C-1.5159375 2.5878125 -1.5159375 2.5878125 -3.0625 3.1875 C-5.80415204 4.34447716 -7.97925412 5.66118003 -10.3125 7.5 C-14.44318958 10.62159418 -19.03237229 11.77058711 -24 13 C-24 14.65 -24 16.3 -24 18 C-23.62875 17.505 -23.2575 17.01 -22.875 16.5 C-20.25305607 14.40244486 -18.26157528 14.78256165 -15 15 C-14.34 16.32 -13.68 17.64 -13 19 C-7.06 19 -1.12 19 5 19 C5 19.66 5 20.32 5 21 C-0.94 21 -6.88 21 -13 21 C-13.66 22.32 -14.32 23.64 -15 25 C-16.98 25 -18.96 25 -21 25 C-21.66 23.68 -22.32 22.36 -23 21 C-24.32 21 -25.64 21 -27 21 C-27 17.37 -27 13.74 -27 10 C-25.659375 9.5875 -24.31875 9.175 -22.9375 8.75 C-18.09048346 7.13178345 -12.89155501 5.30276262 -9.5625 1.25 C-6.79425508 -0.96459593 -3.42135381 -0.1682633 0 0 Z M-20 18 C-20 19.32 -20 20.64 -20 22 C-18.68 22 -17.36 22 -16 22 C-16 20.68 -16 19.36 -16 18 C-17.32 18 -18.64 18 -20 18 Z " fill="#000000" transform="translate(27,14)"/>
</svg>
