<?xml version="1.0" encoding="UTF-8"?>
<svg version="1.1" xmlns="http://www.w3.org/2000/svg" width="50" height="50">
<path d="M0 0 C6.47556391 0.61090226 6.47556391 0.61090226 8.9375 2.4375 C10 4 10 4 10 6 C11.98 5.67 13.96 5.34 16 5 C16 3.35 16 1.7 16 0 C19.3 0 22.6 0 26 0 C26 1.65 26 3.3 26 5 C31.66156831 6.34114062 31.66156831 6.34114062 37.1328125 4.953125 C38.45415831 4.03077381 39.76686965 3.09592006 41.0703125 2.1484375 C44.14121448 0.32081567 46.51144338 0.63660869 50 1 C50 1.66 50 2.32 50 3 C49.01 3.33 48.02 3.66 47 4 C45.80254599 5.90536037 45.80254599 5.90536037 44.77734375 8.25390625 C41.88156523 13.83573091 39.10944179 19.15878741 34 23 C25.55920314 25.39635007 16.57410973 24.09497593 8 23 C8 19.04 8 15.08 8 11 C5.36 10.34 2.72 9.68 0 9 C0 6.03 0 3.06 0 0 Z M18 2 C18 2.33 18 2.66 18 3 C19.98 3 21.96 3 24 3 C24 2.67 24 2.34 24 2 C22.02 2 20.04 2 18 2 Z M2 3 C2 3.99 2 4.98 2 6 C4.475 6.495 4.475 6.495 7 7 C6.67 6.01 6.34 5.02 6 4 C3.98491642 3.26676204 3.98491642 3.26676204 2 3 Z M10 8 C10 12.29 10 16.58 10 21 C21.72525532 22.63053385 21.72525532 22.63053385 32.77978516 19.92041016 C35.66356059 17.09110267 37.44838084 13.69033747 39 10 C38.67 9.34 38.34 8.68 38 8 C34.535 9.485 34.535 9.485 31 11 C31 10.01 31 9.02 31 8 C24.07 8 17.14 8 10 8 Z " fill="#000000" transform="translate(0,17)"/>
<path d="M0 0 C0.66 0 1.32 0 2 0 C2.33 2.31 2.66 4.62 3 7 C1.68 7 0.36 7 -1 7 C-0.67 4.69 -0.34 2.38 0 0 Z " fill="#000000" transform="translate(47,27)"/>
</svg>
