<?xml version="1.0" encoding="UTF-8"?>
<svg version="1.1" xmlns="http://www.w3.org/2000/svg" width="50" height="50">
<path d="M0 0 C5.01791684 2.41935276 8.49958655 5.9991731 11 11 C11.5072965 16.55531248 11.76260422 21.41830236 9.3125 26.5 C2.59412173 33.76311164 2.59412173 33.76311164 -2.609375 34.23828125 C-13.14881343 34.48734758 -13.14881343 34.48734758 -18 30 C-22.83106777 24.51608524 -23.35024743 21.19460601 -23.28125 13.984375 C-22.77938024 8.65897925 -20.24614624 6.0977955 -16.375 2.6875 C-11.25527798 -0.95019722 -6.13002394 -0.57769859 0 0 Z M-16 7 C-12.87501834 7.3373846 -12.87501834 7.3373846 -10.8125 5 C-10.214375 4.34 -9.61625 3.68 -9 3 C-12.13323425 3 -13.68020784 5.04649081 -16 7 Z M-3 3 C-1.35 4.65 0.3 6.3 2 8 C2.66 7.34 3.32 6.68 4 6 C0.74602492 3.74114676 0.74602492 3.74114676 -3 3 Z M-7 5 C-7 7.31 -7 9.62 -7 12 C-8.98 12.33 -10.96 12.66 -13 13 C-12.814375 13.94875 -12.62875 14.8975 -12.4375 15.875 C-12 19 -12 19 -13 21 C-11.02 21.33 -9.04 21.66 -7 22 C-7 24.31 -7 26.62 -7 29 C-6.34 29 -5.68 29 -5 29 C-5 26.69 -5 24.38 -5 22 C-2.03 22.33 0.94 22.66 4 23 C3.319375 22.443125 2.63875 21.88625 1.9375 21.3125 C0 19 0 19 0.0625 16.4375 C1 14 1 14 4 11 C-0.455 11.495 -0.455 11.495 -5 12 C-5 9.69 -5 7.38 -5 5 C-5.66 5 -6.32 5 -7 5 Z M-16 11 C-15.67 11.66 -15.34 12.32 -15 13 C-14.34 12.67 -13.68 12.34 -13 12 C-13.99 11.67 -14.98 11.34 -16 11 Z M-20 13 C-20 15.64 -20 18.28 -20 21 C-19.34 20.67 -18.68 20.34 -18 20 C-18 18.02 -18 16.04 -18 14 C-18.66 13.67 -19.32 13.34 -20 13 Z M7 13 C5.64381501 14.12534105 5.64381501 14.12534105 5.9375 17.0625 C5.958125 18.031875 5.97875 19.00125 6 20 C6.99 20.495 6.99 20.495 8 21 C8 18.36 8 15.72 8 13 C7.67 13 7.34 13 7 13 Z M-15 21 C-15.33 21.66 -15.66 22.32 -16 23 C-15.01 22.67 -14.02 22.34 -13 22 C-13.66 21.67 -14.32 21.34 -15 21 Z M-15 26 C-15.33 26.66 -15.66 27.32 -16 28 C-13.62387135 29.60907108 -13.62387135 29.60907108 -11 31 C-10.34 30.67 -9.68 30.34 -9 30 C-10.98 28.68 -12.96 27.36 -15 26 Z M2 26 C0.35 27.65 -1.3 29.3 -3 31 C-0.08482708 29.92598892 1.77810176 29.22189824 4 27 C3.34 26.67 2.68 26.34 2 26 Z " fill="#000000" transform="translate(31,8)"/>
<path d="M0 0 C5.56340585 3.36669624 9.53349183 8.25193794 11.5 14.4375 C12.30594257 22.2813829 12.59671889 30.02934467 7.5 36.4375 C3.04867668 41.14197914 -1.19064516 44.09747071 -7.76953125 44.7734375 C-16.04371997 44.8646634 -22.08428015 44.61560264 -28.2421875 38.7890625 C-34.17397269 32.28964236 -34.96296445 26.57688134 -34.80859375 17.88671875 C-34.22339005 11.3457711 -31.85547257 7.43687235 -27.0625 3.0625 C-19.84507341 -2.93248543 -8.52200107 -3.84066973 0 0 Z M-27.875 9 C-32.43649379 14.47623185 -32.12226676 20.59256568 -31.5 27.4375 C-29.77883043 33.09869631 -25.25380196 37.15064853 -20.5 40.4375 C-15.0029273 42.26985757 -8.53352755 42.6147627 -3.07421875 40.49609375 C2.22187345 37.31444891 6.09461411 33.17185878 8.5 27.4375 C9.43256519 20.56596704 9.16717526 14.80751171 5 9.125 C1.23402845 4.888282 -2.30028498 1.7228547 -8.171875 1.19921875 C-17.12574998 0.98332583 -21.76625484 2.19969878 -27.875 9 Z " fill="#000000" transform="translate(36.5,3.5625)"/>
<path d="M0 0 C3 0.125 3 0.125 4 1.125 C4.125 4.125 4.125 4.125 4 7.125 C3 8.125 3 8.125 0 8.25 C-3 8.125 -3 8.125 -4 7.125 C-4.125 4.125 -4.125 4.125 -4 1.125 C-3 0.125 -3 0.125 0 0 Z M-1 3.125 C-1 3.785 -1 4.445 -1 5.125 C-0.34 5.125 0.32 5.125 1 5.125 C1 4.465 1 3.805 1 3.125 C0.34 3.125 -0.32 3.125 -1 3.125 Z " fill="#000000" transform="translate(25,20.875)"/>
</svg>
