<?xml version="1.0" encoding="UTF-8"?>
<svg version="1.1" xmlns="http://www.w3.org/2000/svg" width="50" height="50">
<path d="M0 0 C5.62333373 1.12466675 5.62333373 1.12466675 8.62890625 3.8359375 C9.59280273 4.69058594 9.59280273 4.69058594 10.57617188 5.5625 C11.5594043 6.4596875 11.5594043 6.4596875 12.5625 7.375 C13.87535496 8.55053778 15.18912986 9.72504913 16.50390625 10.8984375 C17.11153809 11.44814209 17.71916992 11.99784668 18.34521484 12.56420898 C20.07323635 14.11778543 20.07323635 14.11778543 22.44921875 15.68359375 C22.96097656 16.11800781 23.47273438 16.55242188 24 17 C24.25 20.6875 24.25 20.6875 24 24 C24.66 24 25.32 24 26 24 C26 19.05 26 14.1 26 9 C38.73920195 8.15873195 38.73920195 8.15873195 42.23046875 10.48828125 C46.53199815 15.61825335 47.13654761 19.52906679 47.0625 26.125 C47.05798828 26.87910156 47.05347656 27.63320313 47.04882812 28.41015625 C47.03703499 30.27347127 47.01909942 32.13674555 47 34 C45.35 34 43.7 34 42 34 C41.855625 34.639375 41.71125 35.27875 41.5625 35.9375 C41 38 41 38 40 39 C34.26388889 39.27314815 34.26388889 39.27314815 32 39 C31.34 38.34 30.68 37.68 30 37 C30 36.01 30 35.02 30 34 C25.38 34 20.76 34 16 34 C15.67 35.32 15.34 36.64 15 38 C13.10511048 39.89488952 10.42860854 39.18019112 7.91015625 39.23046875 C6 39 6 39 4 37 C4 36.01 4 35.02 4 34 C1.69 34 -0.62 34 -3 34 C-3 30.7 -3 27.4 -3 24 C2.61 24 8.22 24 14 24 C11.30897864 17.5729949 11.30897864 17.5729949 7.3125 12.5625 C6.68988281 11.88316406 6.06726562 11.20382812 5.42578125 10.50390625 C4.72001953 9.75947266 4.72001953 9.75947266 4 9 C3.957279 10.66611905 3.95936168 12.33382885 4 14 C4.33 14.33 4.66 14.66 5 15 C5.04063832 16.66617115 5.042721 18.33388095 5 20 C3.02 20 1.04 20 -1 20 C-1 19.01 -1 18.02 -1 17 C-0.34 16.67 0.32 16.34 1 16 C0.67 10.72 0.34 5.44 0 0 Z M28 12 C27.91330568 13.4887186 27.89296506 14.981445 27.90234375 16.47265625 C27.90556641 17.37177734 27.90878906 18.27089844 27.91210938 19.19726562 C27.92048828 20.14279297 27.92886719 21.08832031 27.9375 22.0625 C27.94201172 23.01189453 27.94652344 23.96128906 27.95117188 24.93945312 C27.9629989 27.29303065 27.97947975 29.64648477 28 32 C28.66 32 29.32 32 30 32 C30.66 30.68 31.32 29.36 32 28 C34.64 28 37.28 28 40 28 C40.66 29.32 41.32 30.64 42 32 C42.99 31.67 43.98 31.34 45 31 C45 28.36 45 25.72 45 23 C40.71 23 36.42 23 32 23 C32 19.7 32 16.4 32 13 C33.98 13 35.96 13 38 13 C37.67 12.34 37.34 11.68 37 11 C32.20029258 10.47166284 32.20029258 10.47166284 28 12 Z M13 13 C13.31710938 13.58265625 13.63421875 14.1653125 13.9609375 14.765625 C15.36048189 17.77517159 15.62182752 20.7225052 16 24 C17.98 24 19.96 24 22 24 C22.11635105 21.70218446 22.11635105 21.70218446 21 19 C18.50224217 16.74515308 15.80198037 14.85734917 13 13 Z M35 15 C34.61781233 16.65614657 34.28604898 18.32457024 34 20 C35.00836062 21.23267348 35.00836062 21.23267348 37.06640625 21.09765625 C37.89011719 21.08605469 38.71382812 21.07445312 39.5625 21.0625 C40.80193359 21.04896484 40.80193359 21.04896484 42.06640625 21.03515625 C43.02353516 21.01775391 43.02353516 21.01775391 44 21 C42.91215032 17.75016865 42.91215032 17.75016865 41 15 C39.00041636 14.95919217 36.99954746 14.95745644 35 15 Z M-1 26 C-1 27.65 -1 29.3 -1 31 C1.475 31.495 1.475 31.495 4 32 C4.66 30.68 5.32 29.36 6 28 C8.64 28 11.28 28 14 28 C14.66 29.32 15.32 30.64 16 32 C19.3 32 22.6 32 26 32 C26 30.02 26 28.04 26 26 C17.09 26 8.18 26 -1 26 Z M8 30 C7.67 31.65 7.34 33.3 7 35 C9.475 35.495 9.475 35.495 12 36 C12.33 34.35 12.66 32.7 13 31 C11.35 30.67 9.7 30.34 8 30 Z M34 30 C33.67 31.65 33.34 33.3 33 35 C35.475 35.495 35.475 35.495 38 36 C38.33 34.35 38.66 32.7 39 31 C37.35 30.67 35.7 30.34 34 30 Z " fill="#000000" transform="translate(3,4)"/>
</svg>
