<svg width="56" height="27" viewBox="0 0 56 27" fill="none" xmlns="http://www.w3.org/2000/svg">
<g clip-path="url(#clip0_12_4558)">
<path d="M10.5838 3.26454C11.2431 2.44721 11.6905 1.3499 11.5726 0.228516C10.6075 0.276103 9.42971 0.85961 8.74787 1.67748C8.13559 2.37795 7.59374 3.52122 7.73506 4.59556C8.81831 4.68868 9.90079 4.05888 10.5838 3.26454Z" fill="black"/>
<path d="M11.5602 4.80554C9.98686 4.71264 8.64909 5.6905 7.89768 5.6905C7.14595 5.6905 5.99532 4.85237 4.75086 4.87491C3.13112 4.89855 1.6282 5.80616 0.806246 7.24971C-0.884363 10.1375 0.360106 14.4212 2.00412 16.7732C2.80245 17.9367 3.76473 19.218 5.0325 19.1719C6.23037 19.1253 6.69992 18.4031 8.15592 18.4031C9.61093 18.4031 10.0339 19.1719 11.3019 19.1486C12.6169 19.1253 13.4389 17.9844 14.2373 16.8197C15.1532 15.4932 15.5281 14.2125 15.5516 14.1421C15.528 14.1188 13.016 13.1637 12.9927 10.2999C12.969 7.90205 14.9649 6.76137 15.0589 6.6907C13.9319 5.0387 12.1707 4.85237 11.5602 4.80554Z" fill="black"/>
<path d="M25.2599 1.56006C28.6796 1.56006 31.0608 3.89626 31.0608 7.29759C31.0608 10.7111 28.6305 13.0594 25.1742 13.0594H21.3879V19.0268H18.6523V1.56006H25.2599ZM21.3878 10.7837H24.5267C26.9084 10.7837 28.2639 9.51282 28.2639 7.30973C28.2639 5.10685 26.9084 3.84792 24.5389 3.84792H21.3878V10.7837Z" fill="black"/>
<path d="M31.7756 15.4077C31.7756 13.1803 33.4977 11.8126 36.5514 11.6431L40.0687 11.4374V10.457C40.0687 9.0408 39.1038 8.19345 37.4919 8.19345C35.9648 8.19345 35.0122 8.91961 34.7804 10.0576H32.2888C32.4354 7.75758 34.4138 6.06299 37.5895 6.06299C40.7038 6.06299 42.6945 7.69709 42.6945 10.2511V19.0268H40.1662V16.9328H40.1054C39.3605 18.3491 37.7359 19.2447 36.0506 19.2447C33.5345 19.2447 31.7756 17.6952 31.7756 15.4077ZM40.0686 14.2578V13.2532L36.9052 13.4468C35.3297 13.5558 34.4382 14.2458 34.4382 15.3352C34.4382 16.4486 35.3663 17.175 36.7832 17.175C38.6273 17.1748 40.0686 15.916 40.0686 14.2578Z" fill="black"/>
<path d="M45.0813 23.7114V21.5931C45.2764 21.6414 45.716 21.6414 45.936 21.6414C47.1573 21.6414 47.8169 21.1331 48.2197 19.8259C48.2197 19.8016 48.452 19.0511 48.452 19.039L43.811 6.29297H46.6687L49.9179 16.6545H49.9664L53.2156 6.29297H56L51.1875 19.6925C50.0887 22.7794 48.8184 23.7719 46.1559 23.7719C45.936 23.7719 45.2763 23.7476 45.0813 23.7114Z" fill="black"/>
</g>
<defs>
<clipPath id="clip0_12_4558">
<rect width="56" height="27" fill="white"/>
</clipPath>
</defs>
</svg>
