<svg width="100" height="32" viewBox="0 0 100 32" fill="none" xmlns="http://www.w3.org/2000/svg">
<path d="M59.8535 16.7024C60.0586 16.0394 60.2344 15.3764 60.4395 14.6837C60.6934 13.8128 60.9277 12.9618 61.1914 12.1009C61.377 11.4873 61.6797 11.2498 62.3047 11.2498C62.7441 11.2498 63.1836 11.2498 63.6133 11.2498C64.1797 11.2498 64.5117 11.4873 64.668 12.0415C65.0879 13.4467 65.4883 14.8717 65.8887 16.2769C65.9277 16.4055 65.9766 16.554 66.0742 16.6826C66.1426 16.4649 66.2012 16.2571 66.2793 16.0394C66.6406 14.7826 67.0117 13.5061 67.3926 12.2493C67.6074 11.5071 67.9785 11.23 68.7207 11.23C69.1992 11.23 69.668 11.23 70.127 11.23C70.5273 11.23 70.6934 11.418 70.6055 11.804C70.4785 12.2988 70.3125 12.8035 70.166 13.2785C69.4531 15.5347 68.7207 17.8107 68.0176 20.0571C67.8125 20.6706 67.4316 20.9279 66.8164 20.9477C66.4746 20.9477 66.123 20.9477 65.7813 20.9477C65.166 20.9477 64.7559 20.6509 64.5801 20.0571C64.0918 18.454 63.5742 16.841 63.0859 15.2378C63.0664 15.1488 63.0273 15.0696 62.9785 14.9014C62.9199 15.0498 62.9102 15.1191 62.8711 15.1982C62.3633 16.8014 61.8652 18.4342 61.3574 20.0373C61.1719 20.6509 60.7715 20.9279 60.1367 20.9279C59.7754 20.9279 59.4238 20.9279 59.0625 20.9279C58.4766 20.9279 58.0957 20.6311 57.9102 20.0769C57.1289 17.6227 56.3574 15.1785 55.5762 12.7243C55.5078 12.467 55.4102 12.2295 55.3418 11.9623C55.3027 11.8337 55.2832 11.705 55.2832 11.5764C55.2832 11.3191 55.4102 11.1904 55.6641 11.1904C56.25 11.1904 56.8164 11.1706 57.3926 11.1904C57.9199 11.2102 58.3008 11.5269 58.4668 12.0415C58.8867 13.4863 59.3066 14.9212 59.7461 16.366C59.7656 16.455 59.8047 16.5342 59.8145 16.6232C59.8047 16.7024 59.8242 16.7024 59.8535 16.7024Z" fill="#006E9C"/>
<path d="M51.6504 20.2156C51.5039 20.3046 51.3769 20.3838 51.25 20.4531C50.3418 21.027 49.3164 21.215 48.2617 21.1754C47.5684 21.1359 46.9141 21.027 46.2695 20.7301C45.1172 20.1958 44.4824 19.1963 44.5215 18.0088C44.5605 16.6827 45.2344 15.8119 46.4355 15.327C47.0703 15.0697 47.7441 14.9609 48.4375 14.9609C49.3359 14.9609 50.2441 14.9609 51.1328 14.9609C51.3672 14.9609 51.4258 14.8916 51.4062 14.664C51.2793 13.5359 50.8203 13.0906 49.6875 13.0906C49.2285 13.0906 48.7891 13.1499 48.3887 13.3676C48.2422 13.4567 48.0957 13.5754 47.9687 13.7041C47.6953 14.0208 47.3633 14.1692 46.9629 14.1692C46.582 14.1692 46.2012 14.1692 45.8105 14.1692C45.3516 14.1692 45.1562 13.9317 45.1953 13.4666C45.2637 12.5562 45.7422 11.9723 46.543 11.5963C47.1973 11.2994 47.8906 11.1906 48.6035 11.1114C49.5898 11.0421 50.5762 11.0025 51.543 11.2598C52.5976 11.5171 53.457 12.0515 53.9648 13.0708C54.2383 13.6249 54.3457 14.1989 54.3457 14.8124C54.3457 16.6629 54.3457 18.5135 54.3457 20.3739C54.3457 20.8192 54.1601 20.9874 53.7402 20.9874C53.2617 20.9874 52.793 20.9874 52.334 20.9874C51.8555 20.9874 51.6992 20.839 51.6797 20.3442C51.6699 20.3244 51.6699 20.2848 51.6504 20.2156ZM49.9219 16.9796C49.4824 16.9994 49.0234 16.9796 48.5937 16.9994C48.1543 17.0192 47.793 17.2171 47.5879 17.6426C47.2949 18.2661 47.6562 18.9588 48.3691 19.1072C49.4434 19.3249 50.4101 18.9786 51.3281 18.4244C51.3867 18.3848 51.416 18.276 51.416 18.1869C51.4355 17.8702 51.416 17.5437 51.416 17.227C51.416 17.039 51.3476 16.9895 51.1816 16.9895C50.7519 16.9796 50.3418 16.9796 49.9219 16.9796Z" fill="#006E9C"/>
<path d="M84.9706 20.2652C84.6776 20.2256 84.4237 20.2058 84.1893 20.1564C83.369 20.0079 82.7147 19.5824 82.1972 18.9194C81.6307 18.1772 81.2889 17.3459 81.0155 16.4751C80.537 14.9412 80.0878 13.4074 79.6483 11.8735C79.5409 11.5074 79.7069 11.2798 80.0878 11.2798C80.6346 11.2798 81.2011 11.2798 81.7479 11.2798C82.1874 11.2798 82.4804 11.4975 82.6073 11.9428C83.0272 13.3084 83.4276 14.6741 83.8475 16.0496C84.0136 16.6037 84.2284 17.1381 84.5995 17.6032C84.7948 17.8407 85.0389 18.0287 85.3514 18.0881C85.537 18.1277 85.6249 18.0881 85.6835 17.8803C86.1718 16.0694 86.6698 14.2584 87.1581 12.4475C87.2167 12.2595 87.2655 12.0616 87.3241 11.8735C87.4315 11.4876 87.705 11.2798 88.1054 11.2798C88.6522 11.2798 89.1991 11.2798 89.746 11.2798C90.1659 11.2798 90.3319 11.4975 90.2245 11.8933C89.4432 14.773 88.6718 17.6824 87.871 20.5621C87.6854 21.2251 87.3925 21.8782 87.0897 22.4819C86.5038 23.61 85.537 24.2037 84.2772 24.184C83.5155 24.184 82.744 24.0949 81.9823 23.9959C81.6014 23.9563 81.4354 23.7386 81.4354 23.3527C81.4354 23.0558 81.4354 22.7787 81.4354 22.4819C81.4354 22.1355 81.6405 21.9277 81.9823 21.9277C82.3436 21.9475 82.7343 21.9871 83.0956 22.0366C83.6229 22.1256 84.0819 21.9772 84.4237 21.5715C84.6776 21.2152 84.8436 20.7699 84.9706 20.2652Z" fill="#006E9C"/>
<path d="M37.1875 16.1088C37.1875 14.7036 37.1484 13.3182 37.207 11.913C37.2266 11.3588 37.3535 10.7848 37.5195 10.2505C37.8809 9.14213 38.7402 8.56817 39.8145 8.31088C40.9961 8.014 42.207 8.0338 43.4082 8.14265C43.7207 8.16244 44.0234 8.21192 44.3164 8.2713C44.6973 8.34057 44.8633 8.54838 44.8633 8.93432C44.8633 9.2114 44.8633 9.46869 44.8633 9.74577C44.8437 10.1317 44.6582 10.3395 44.2578 10.3395C43.9844 10.3395 43.7109 10.3197 43.4375 10.2703C42.7051 10.1218 41.9824 10.1812 41.2695 10.3593C40.5762 10.5275 40.2441 10.9531 40.1563 11.7645C40.1172 12.002 40.1172 12.2593 40.0977 12.5067C40.0781 12.7244 40.1563 12.8036 40.3906 12.8036C41.2891 12.7838 42.1973 12.8036 43.0859 12.8036C43.5645 12.8036 43.7207 12.9718 43.7402 13.4468C43.7402 13.7437 43.7402 14.0406 43.7402 14.3374C43.7402 14.7234 43.5352 14.9312 43.1348 14.9312C42.2266 14.9312 41.2891 14.9312 40.3809 14.9312C40.166 14.9312 40.0879 15.0005 40.0879 15.2281C40.0879 16.9302 40.0879 18.6322 40.0879 20.3442C40.0879 20.8588 39.9219 21.027 39.4141 21.027C38.8867 21.027 38.3398 21.027 37.8125 21.027C37.3242 21.027 37.1582 20.8588 37.1582 20.364C37.168 18.9192 37.168 17.514 37.1875 16.1088Z" fill="#006E9C"/>
<path d="M74.8145 12.3581C75.0879 12.1701 75.293 12.0216 75.4883 11.893C76.4355 11.2696 77.4902 11.0815 78.6035 11.0815C78.916 11.0815 79.1113 11.2894 79.1309 11.6159C79.1504 12.0612 79.1504 12.5263 79.1309 12.9618C79.1113 13.3081 78.9258 13.4961 78.584 13.4961C78.1836 13.4961 77.7637 13.4961 77.3633 13.4565C76.5625 13.3873 75.9082 13.6743 75.3027 14.2185C74.9414 14.555 74.7754 14.9013 74.7949 15.4159C74.834 17.0388 74.8145 18.6716 74.8145 20.3144C74.8145 20.8289 74.6484 20.9972 74.1211 20.9972C73.5547 20.9972 73.0078 20.9972 72.4414 20.9972C72.0605 20.9972 71.8555 20.7894 71.8555 20.4034C71.8555 17.5534 71.8555 14.7133 71.8555 11.8633C71.8555 11.4774 72.0605 11.2696 72.4414 11.2696C73.0469 11.2696 73.6426 11.2696 74.248 11.2696C74.6094 11.2696 74.7949 11.4774 74.8145 11.8435C74.8145 11.992 74.8145 12.1404 74.8145 12.3581Z" fill="#006E9C"/>
<path d="M32.6074 16.0395C32.6074 22.4124 27.5195 27.5682 21.2305 27.5682C20.0293 27.5682 18.877 27.3801 17.8027 27.0338C16.1816 26.5192 14.707 25.6286 13.4766 24.4609C11.2305 22.3729 9.84375 19.3645 9.84375 16.0296C9.84375 9.65671 14.9316 4.50098 21.2207 4.50098C22.5879 4.50098 23.8867 4.73848 25.0879 5.18379C26.6602 5.75775 28.0762 6.67806 29.2285 7.84577C31.3184 9.95358 32.6074 12.8432 32.6074 16.0395Z" fill="#FFD200"/>
<path d="M26.5039 20.938L24.9707 20.1662C24.9707 20.1662 22.3633 24.9854 17.7832 27.0438C16.1621 26.5292 14.6875 25.6386 13.457 24.4709C14.4629 24.3224 16.084 23.8078 17.7832 22.1058C20.5762 19.3349 21.2109 17.8011 21.2109 17.8011L20.0098 16.9896C19.5898 16.7125 19.6777 16.0792 20.1367 15.9209L25.3906 14.0703C25.752 13.9417 26.1426 14.1792 26.1719 14.5651L26.9531 20.5917C27.0313 20.8589 26.7578 21.0667 26.5039 20.938Z" fill="#006E9C"/>
<path d="M28.086 14.2582C27.9591 14.5946 27.4806 14.5353 27.4317 14.1889L27.0899 12.1603L24.502 12.9717C24.2091 13.0608 23.9552 12.7639 24.0821 12.4868C24.4239 11.7446 24.922 10.5077 25.3223 8.92432C25.6837 7.41025 25.4298 6.07432 25.1173 5.21338C26.6895 5.78734 28.1056 6.70765 29.2579 7.87536C29.4532 10.2701 28.6329 12.8431 28.086 14.2582Z" fill="#006E9C"/>
</svg>
